<svg xmlns="http://www.w3.org/2000/svg" viewBox="0 0 48 48"><path class="externe" d="M48 19.5c-.3.4-.5.8-.9 1.1-.6.5-1.5.3-2.1-.4L40.8 16c-.1-.1-.2-.3-.4-.5-.2.2-.3.4-.4.5L23.4 32.6l-.3.3c-.4.3-.8.4-1.2 0l-3-3c-.4-.4-.4-.8 0-1.2l.4-.4 16.5-16.5c.1-.1.3-.2.5-.3-.2-.2-.3-.4-.4-.5l-4.2-4.2c-.8-.9-.8-2 .1-2.6.3-.2.7-.3 1-.3h13.4c.9 0 1.5.5 1.8 1.3v14.3z" fill="#1d1ded"/><path class="externe" d="M19.2 44.5c-3.9 0-7.7.1-11.6 0-3.4-.1-6.6-3-7-6.5 0-.4-.1-.8-.1-1.2V15c0-3.4 2-6.3 5.2-7.4.8-.3 1.7-.4 2.6-.4h18.2c.8 0 1.1.3 1.1 1.1v1.3c0 .6-.3.9-.9 1H8.4c-1.9 0-3.3.8-4.1 2.4-.3.6-.4 1.3-.4 2v21.7c0 2.2 1.2 3.7 3.2 4.3.4.1.9.1 1.3.1H30c2.2 0 3.8-1.2 4.3-3.3.1-.4.1-.9.1-1.3v-7.8c0-1 .2-1.2 1.2-1.2h1.3c.6 0 .9.3.9.9 0 3 .1 6.1 0 9.1-.1 3.2-3 6.3-6.2 6.8-.6.1-1.2.1-1.8.1-3.5.2-7.1.2-10.6.1 0 .1 0 0 0 0z" fill="#1d1ded" stroke="#1d1ded" stroke-miterlimit="10"/></svg>