<?xml version="1.0" encoding="utf-8"?>
<!-- Generator: Adobe Illustrator 25.2.0, SVG Export Plug-In . SVG Version: 6.00 Build 0)  -->
<svg version="1.1" id="Calque_1" xmlns="http://www.w3.org/2000/svg" xmlns:xlink="http://www.w3.org/1999/xlink" x="0px" y="0px"
	 viewBox="0 0 16 16" style="enable-background:new 0 0 16 16;" xml:space="preserve">
<style type="text/css">
	.st0{fill:#003838;}
	.st1{fill:#77E65E;}
</style>
<rect y="0" class="st0" width="16" height="16"/>
<g>
	<path class="st1" d="M0.5,4.9h1.9c1.3,0,2.1,0.5,2.1,1.7S3.6,8.4,2.4,8.4H1.3V11H0.5V4.9z M2.3,7.8c1,0,1.5-0.4,1.5-1.2
		S3.3,5.5,2.3,5.5h-1v2.3H2.3z M2.3,8.2l0.6-0.4L4.8,11H3.9L2.3,8.2z"/>
	<path class="st1" d="M5.8,8.5V4.9h0.8v3.6c0,1.5,0.6,1.9,1.4,1.9s1.5-0.5,1.5-1.9V4.9h0.7v3.6c0,2-1,2.7-2.2,2.7
		C6.8,11.1,5.8,10.4,5.8,8.5z"/>
	<path class="st1" d="M12.9,7.8l-1.7-3h0.9l0.8,1.6c0.2,0.3,0.3,0.5,0.5,0.9l0,0c0.2-0.4,0.3-0.6,0.4-0.9l0.8-1.6h0.8l-1.7,3
		l1.8,3.1h-0.9l-0.9-1.7c-0.2-0.3-0.3-0.6-0.5-1l0,0c-0.2,0.4-0.3,0.7-0.5,1L11.9,11h-0.8L12.9,7.8z"/>
</g>
</svg>
