<?xml version="1.0" encoding="utf-8"?>
<!-- Generator: Adobe Illustrator 25.2.0, SVG Export Plug-In . SVG Version: 6.00 Build 0)  -->
<svg version="1.1" id="Capa_1" xmlns="http://www.w3.org/2000/svg" xmlns:xlink="http://www.w3.org/1999/xlink" x="0px" y="0px"
	 viewBox="0 0 283.5 283.5" style="enable-background:new 0 0 283.5 283.5;" xml:space="preserve">
<style type="text/css">
	.st0{fill:#FFFFFF;stroke:#FFFFFF;stroke-width:5;stroke-miterlimit:10;}
</style>
<path class="st0" d="M145.1,57.9c-41.1,0-74.5,33.4-74.5,74.5c0,16.8,5.5,32.7,15.9,45.9c2,2.5,4.2,5,6.2,7.4
	c6.2,7.2,12.1,14,14.2,21.7c0,0.2,0.4,1.8,0.4,7.2l0,0.8c-0.1,4.4-0.1,10.5,4.4,15.1c3.1,3.1,7.4,4.6,13.2,4.6h40.3
	c6.3,0,10.8-1.5,13.8-4.7c4.1-4.3,3.8-9.8,3.6-13.4c0-0.6-0.1-1.3-0.1-1.9c-0.1-5.5,0.3-7,0.4-7.1c2.1-7.7,9-15.7,15.1-22.9
	c2-2.4,3.9-4.6,5.7-6.9c10.4-13.2,15.9-29.1,15.9-46C219.6,91.3,186.2,57.9,145.1,57.9z M191.9,169c-1.6,2-3.4,4.2-5.4,6.4
	c-7.1,8.3-15.1,17.7-18.1,28.6c-0.4,1.5-1,4.4-0.9,11.3c0,0.8,0,1.7,0.1,2.5c0,0.7,0.1,1.5,0.1,2.2c-0.5,0.1-1.3,0.2-2.5,0.2h-40.3
	c-1.3,0-2-0.1-2.4-0.2c-0.2-1-0.2-3-0.2-4.3l0-0.8c0.1-6.9-0.5-9.8-0.9-11.3c-3-10.9-10.6-19.7-17.3-27.5c-2.1-2.4-4-4.7-5.8-6.9
	c-8.3-10.6-12.7-23.2-12.7-36.7c0-32.8,26.7-59.5,59.5-59.5c32.8,0,59.5,26.7,59.5,59.5C204.6,145.8,200.2,158.5,191.9,169z"/>
<path class="st0" d="M163.7,241.5h-37c-8,0-14.5,6.5-14.5,14.5v11.1c0,8,6.5,14.5,14.5,14.5h37c8,0,14.5-6.5,14.5-14.5V256
	C178.2,248,171.7,241.5,163.7,241.5z M163.2,266.6h-36v-10.1h36V266.6z"/>
<path class="st0" d="M145.1,47.7c4.1,0,7.5-3.4,7.5-7.5V9.4c0-4.1-3.4-7.5-7.5-7.5s-7.5,3.4-7.5,7.5v30.8
	C137.6,44.3,141,47.7,145.1,47.7z"/>
<path class="st0" d="M243.8,36.5c-2.9-3-7.6-3.1-10.6-0.2L210.4,58c-3,2.9-3.1,7.6-0.2,10.6c1.5,1.5,3.4,2.3,5.4,2.3
	c1.9,0,3.7-0.7,5.2-2.1l22.8-21.7C246.6,44.2,246.7,39.5,243.8,36.5z"/>
<path class="st0" d="M266.2,111.5C266.2,111.5,266.2,111.5,266.2,111.5l-29.3,0c-4.1,0-7.5,3.4-7.5,7.5c0,4.1,3.4,7.5,7.5,7.5
	c0,0,0,0,0,0l29.3,0c4.1,0,7.5-3.4,7.5-7.5C273.7,114.8,270.3,111.5,266.2,111.5z"/>
<path class="st0" d="M76.3,66.6c2.9-3,2.7-7.7-0.2-10.6L53.3,34.2c-3-2.9-7.7-2.7-10.6,0.2c-2.9,3-2.7,7.7,0.2,10.6l22.8,21.7
	c1.5,1.4,3.3,2.1,5.2,2.1C72.8,68.9,74.8,68.1,76.3,66.6z"/>
<path class="st0" d="M46.6,111.5l-29.3,0c0,0,0,0,0,0c-4.1,0-7.5,3.4-7.5,7.5c0,4.1,3.3,7.5,7.5,7.5l29.3,0c0,0,0,0,0,0
	c4.1,0,7.5-3.4,7.5-7.5C54.1,114.9,50.8,111.5,46.6,111.5z"/>
</svg>
